<svg width="35" height="27" viewBox="0 0 35 27" fill="none" xmlns="http://www.w3.org/2000/svg">
<path d="M14.08 20.79C14.08 22.4033 13.4567 23.7233 12.21 24.75C11.0367 25.7033 9.46 26.18 7.48 26.18C5.57333 26.18 3.85 25.2633 2.31 23.43C0.77 21.5967 0 19.2133 0 16.28C0 13.3467 1.32 10.34 3.96 7.26C6.6 4.18 10.6333 1.76 16.06 0L17.05 2.41999C9.13 6.01333 5.17 10.8533 5.17 16.94C6.19667 15.84 7.44333 15.29 8.91 15.29C10.3767 15.29 11.5867 15.8033 12.54 16.83C13.5667 17.8567 14.08 19.1767 14.08 20.79ZM32.01 20.79C32.01 22.4033 31.3867 23.7233 30.14 24.75C28.9667 25.7033 27.39 26.18 25.41 26.18C23.5033 26.18 21.78 25.2633 20.24 23.43C18.7 21.5967 17.93 19.2133 17.93 16.28C17.93 13.3467 19.25 10.34 21.89 7.26C24.53 4.18 28.5633 1.76 33.99 0L34.98 2.41999C27.06 6.01333 23.1 10.8533 23.1 16.94C24.1267 15.84 25.3733 15.29 26.84 15.29C28.3067 15.29 29.5167 15.8033 30.47 16.83C31.4967 17.8567 32.01 19.1767 32.01 20.79Z" fill="#2152D4"/>
</svg>
