<svg width="32" height="32" viewBox="0 0 32 32" fill="none" xmlns="http://www.w3.org/2000/svg">
<rect width="32" height="32" rx="12" fill="white"/>
<path d="M16.0031 16.0002V16.0106M18.9183 13.0787C19.6913 13.8536 20.1255 14.9044 20.1255 16.0001C20.1255 17.0958 19.6913 18.1466 18.9183 18.9215M21.8345 10.1562C22.6003 10.9236 23.2078 11.8347 23.6222 12.8374C24.0367 13.84 24.25 14.9147 24.25 16C24.25 17.0853 24.0367 18.16 23.6222 19.1626C23.2078 20.1653 22.6003 21.0764 21.8345 21.8437M13.0838 18.9215C12.3108 18.1466 11.8766 17.0958 11.8766 16.0001C11.8766 14.9044 12.3108 13.8536 13.0838 13.0787M10.1655 21.8437C9.39971 21.0764 8.79223 20.1653 8.37777 19.1626C7.96332 18.16 7.75 17.0853 7.75 16C7.75 14.9147 7.96332 13.84 8.37777 12.8374C8.79223 11.8347 9.39971 10.9236 10.1655 10.1562" stroke="#2761FC" stroke-width="1.33333" stroke-linecap="round" stroke-linejoin="round"/>
</svg>
