<svg width="44" height="44" viewBox="0 0 44 44" fill="none" xmlns="http://www.w3.org/2000/svg">
<rect width="44" height="44" rx="16.5" fill="white"/>
<g clip-path="url(#clip0_3826_147)">
<path d="M22.0043 22.0003V22.0145M26.0127 17.9833C27.0755 19.0487 27.6726 20.4936 27.6726 22.0001C27.6726 23.5067 27.0755 24.9516 26.0127 26.017M30.0224 13.9648C31.0754 15.02 31.9107 16.2727 32.4806 17.6514C33.0504 19.0301 33.3438 20.5077 33.3438 22C33.3438 23.4923 33.0504 24.9699 32.4806 26.3486C31.9107 27.7273 31.0754 28.98 30.0224 30.0352M17.9902 26.017C16.9274 24.9516 16.3303 23.5067 16.3303 22.0001C16.3303 20.4936 16.9274 19.0487 17.9902 17.9833M13.9776 30.0352C12.9246 28.98 12.0893 27.7273 11.5194 26.3486C10.9496 24.9699 10.6562 23.4923 10.6562 22C10.6562 20.5077 10.9496 19.0301 11.5194 17.6514C12.0893 16.2727 12.9246 15.02 13.9776 13.9648" stroke="#2761FC" stroke-width="1.83333" stroke-linecap="round" stroke-linejoin="round"/>
</g>
<defs>
<clipPath id="clip0_3826_147">
<rect width="24.9219" height="24.9219" fill="white" transform="translate(9.53906 9.53906)"/>
</clipPath>
</defs>
</svg>
