<svg width="32" height="32" viewBox="0 0 32 32" fill="none" xmlns="http://www.w3.org/2000/svg">
<path d="M8 12C8 14.1217 8.84286 16.1566 10.3431 17.6569C11.8434 19.1571 13.8783 20 16 20M8 12C8 9.87827 8.84286 7.84344 10.3431 6.34315C11.8434 4.84286 13.8783 4 16 4M8 12H24M16 20C18.1217 20 20.1566 19.1571 21.6569 17.6569C23.1571 16.1566 24 14.1217 24 12M16 20C17.7773 19.556 18.6667 16.8893 18.6667 12C18.6667 7.11067 17.7773 4.444 16 4M16 20C14.2227 19.556 13.3333 16.8893 13.3333 12C13.3333 7.11067 14.2227 4.444 16 4M16 20V24M24 12C24 9.87827 23.1571 7.84344 21.6569 6.34315C20.1566 4.84286 18.1217 4 16 4M4 26.6667H13.3333M13.3333 26.6667C13.3333 27.3739 13.6143 28.0522 14.1144 28.5523C14.6145 29.0524 15.2928 29.3333 16 29.3333C16.7072 29.3333 17.3855 29.0524 17.8856 28.5523C18.3857 28.0522 18.6667 27.3739 18.6667 26.6667M13.3333 26.6667C13.3333 25.9594 13.6143 25.2811 14.1144 24.781C14.6145 24.281 15.2928 24 16 24M18.6667 26.6667H28M18.6667 26.6667C18.6667 25.9594 18.3857 25.2811 17.8856 24.781C17.3855 24.281 16.7072 24 16 24" stroke="#2761FC" stroke-width="1.5" stroke-linecap="round" stroke-linejoin="round"/>
</svg>
