<svg width="44" height="44" viewBox="0 0 44 44" fill="none" xmlns="http://www.w3.org/2000/svg">
<path d="M23.8333 28.4115V16.4948C23.8333 16.0086 24.0265 15.5422 24.3703 15.1984C24.7141 14.8546 25.1804 14.6615 25.6667 14.6615H36.6667C37.1529 14.6615 37.6192 14.8546 37.963 15.1984C38.3068 15.5422 38.5 16.0086 38.5 16.4948V23.8281M33 14.6615V9.16146C33 8.67523 32.8068 8.20891 32.463 7.8651C32.1192 7.52128 31.6529 7.32813 31.1667 7.32812H7.33333C6.8471 7.32812 6.38079 7.52128 6.03697 7.8651C5.69315 8.20891 5.5 8.67523 5.5 9.16146V31.1615C5.5 31.6477 5.69315 32.114 6.03697 32.4578C6.38079 32.8016 6.8471 32.9948 7.33333 32.9948H20.1667M29.3333 16.4948H33M27.5 34.8281L31.1667 38.4948L38.5 31.1615" stroke="#2761FC" stroke-width="2.5" stroke-linecap="round" stroke-linejoin="round"/>
</svg>
