<svg width="33" height="33" viewBox="0 0 33 33" fill="none" xmlns="http://www.w3.org/2000/svg">
<path d="M11.25 16.25L14.5833 19.5833L21.25 12.9167M1.25 16.25C1.25 18.2198 1.63799 20.1704 2.39181 21.9903C3.14563 23.8101 4.25052 25.4637 5.6434 26.8566C7.03628 28.2495 8.68986 29.3544 10.5097 30.1082C12.3296 30.862 14.2802 31.25 16.25 31.25C18.2198 31.25 20.1704 30.862 21.9903 30.1082C23.8101 29.3544 25.4637 28.2495 26.8566 26.8566C28.2495 25.4637 29.3544 23.8101 30.1082 21.9903C30.862 20.1704 31.25 18.2198 31.25 16.25C31.25 14.2802 30.862 12.3296 30.1082 10.5097C29.3544 8.68986 28.2495 7.03628 26.8566 5.6434C25.4637 4.25052 23.8101 3.14563 21.9903 2.39181C20.1704 1.63799 18.2198 1.25 16.25 1.25C14.2802 1.25 12.3296 1.63799 10.5097 2.39181C8.68986 3.14563 7.03628 4.25052 5.6434 5.6434C4.25052 7.03628 3.14563 8.68986 2.39181 10.5097C1.63799 12.3296 1.25 14.2802 1.25 16.25Z" stroke="#00B352" stroke-width="2.5" stroke-linecap="round" stroke-linejoin="round"/>
</svg>
