<svg width="33" height="31" viewBox="0 0 33 31" fill="none" xmlns="http://www.w3.org/2000/svg">
<path d="M16.25 24.5833H4.58333C3.69928 24.5833 2.85143 24.2321 2.22631 23.607C1.60119 22.9819 1.25 22.1341 1.25 21.25V4.58333M1.25 4.58333C1.25 3.69928 1.60119 2.85143 2.22631 2.22631C2.85143 1.60119 3.69928 1.25 4.58333 1.25H27.9167C28.8007 1.25 29.6486 1.60119 30.2737 2.22631C30.8988 2.85143 31.25 3.69928 31.25 4.58333M1.25 4.58333L16.25 14.5833L31.25 4.58333M31.25 4.58333V17.0833M21.25 24.5833H31.25M31.25 24.5833L26.25 19.5833M31.25 24.5833L26.25 29.5833" stroke="#00B352" stroke-width="2.5" stroke-linecap="round" stroke-linejoin="round"/>
</svg>
