<svg width="20" height="20" viewBox="0 0 20 20" fill="none" xmlns="http://www.w3.org/2000/svg">
<path d="M18.75 18.75L12.75 12.75M0.75 7.75C0.75 8.66925 0.93106 9.57951 1.28284 10.4288C1.63463 11.2781 2.15024 12.0497 2.80025 12.6997C3.45026 13.3498 4.22194 13.8654 5.07122 14.2172C5.9205 14.5689 6.83075 14.75 7.75 14.75C8.66925 14.75 9.57951 14.5689 10.4288 14.2172C11.2781 13.8654 12.0497 13.3498 12.6997 12.6997C13.3498 12.0497 13.8654 11.2781 14.2172 10.4288C14.5689 9.57951 14.75 8.66925 14.75 7.75C14.75 6.83075 14.5689 5.9205 14.2172 5.07122C13.8654 4.22194 13.3498 3.45026 12.6997 2.80025C12.0497 2.15024 11.2781 1.63463 10.4288 1.28284C9.57951 0.93106 8.66925 0.75 7.75 0.75C6.83075 0.75 5.9205 0.93106 5.07122 1.28284C4.22194 1.63463 3.45026 2.15024 2.80025 2.80025C2.15024 3.45026 1.63463 4.22194 1.28284 5.07122C0.93106 5.9205 0.75 6.83075 0.75 7.75Z" stroke="#62626A" stroke-width="1.5" stroke-linecap="round" stroke-linejoin="round"/>
</svg>
