<svg width="20" height="20" viewBox="0 0 20 20" fill="none" xmlns="http://www.w3.org/2000/svg">
<path d="M3.91797 16.599C4.16548 15.7752 4.67194 15.0532 5.36222 14.54C6.05249 14.0268 6.88982 13.7497 7.74997 13.75H11.75C12.6112 13.7497 13.4496 14.0274 14.1404 14.5418C14.8311 15.0562 15.3374 15.7798 15.584 16.605M0.75 9.75C0.75 10.9319 0.982792 12.1022 1.43508 13.1942C1.88738 14.2861 2.55031 15.2782 3.38604 16.114C4.22177 16.9497 5.21392 17.6126 6.30585 18.0649C7.39778 18.5172 8.5681 18.75 9.75 18.75C10.9319 18.75 12.1022 18.5172 13.1942 18.0649C14.2861 17.6126 15.2782 16.9497 16.114 16.114C16.9497 15.2782 17.6126 14.2861 18.0649 13.1942C18.5172 12.1022 18.75 10.9319 18.75 9.75C18.75 8.5681 18.5172 7.39778 18.0649 6.30585C17.6126 5.21392 16.9497 4.22177 16.114 3.38604C15.2782 2.55031 14.2861 1.88738 13.1942 1.43508C12.1022 0.982792 10.9319 0.75 9.75 0.75C8.5681 0.75 7.39778 0.982792 6.30585 1.43508C5.21392 1.88738 4.22177 2.55031 3.38604 3.38604C2.55031 4.22177 1.88738 5.21392 1.43508 6.30585C0.982792 7.39778 0.75 8.5681 0.75 9.75ZM6.75 7.75C6.75 8.54565 7.06607 9.30871 7.62868 9.87132C8.19129 10.4339 8.95435 10.75 9.75 10.75C10.5456 10.75 11.3087 10.4339 11.8713 9.87132C12.4339 9.30871 12.75 8.54565 12.75 7.75C12.75 6.95435 12.4339 6.19129 11.8713 5.62868C11.3087 5.06607 10.5456 4.75 9.75 4.75C8.95435 4.75 8.19129 5.06607 7.62868 5.62868C7.06607 6.19129 6.75 6.95435 6.75 7.75Z" stroke="#F6F6FD" stroke-width="1.5" stroke-linecap="round" stroke-linejoin="round"/>
</svg>
