<svg width="24" height="24" viewBox="0 0 24 24" fill="none" xmlns="http://www.w3.org/2000/svg">
<path d="M20.9454 12.9903C21.1434 11.2008 20.8003 9.39313 19.9603 7.80075C19.1203 6.20837 17.822 4.90452 16.2332 4.05771C14.6444 3.2109 12.8382 2.86005 11.0479 3.05051C9.25765 3.24096 7.56566 3.96397 6.19059 5.12609C4.81553 6.2882 3.82061 7.83601 3.3344 9.56948C2.8482 11.303 2.89307 13.1424 3.4632 14.8501C4.03334 16.5578 5.10254 18.0553 6.53262 19.149C7.9627 20.2427 9.68794 20.8823 11.4854 20.9853M3.60156 9.00024H20.4016M3.60156 15.0002H17.5016M11.4997 3.00024C9.81501 5.69986 8.92188 8.81811 8.92188 12.0002C8.92188 15.1824 9.81501 18.3006 11.4997 21.0002M12.5 3.00024C14.7316 6.57569 15.5552 10.8527 14.811 15.0012M15 19.0002L17 21.0002L21 17.0002" stroke="#F6F6FD" stroke-width="1.5" stroke-linecap="round" stroke-linejoin="round"/>
</svg>
