<svg width="44" height="44" viewBox="0 0 44 44" fill="none" xmlns="http://www.w3.org/2000/svg">
<path d="M38.3998 23.8155C38.763 20.5349 38.1339 17.2207 36.5939 14.3014C35.0538 11.382 32.6736 8.99162 29.7609 7.43914C26.8481 5.88665 23.5367 5.24343 20.2545 5.5926C16.9724 5.94177 13.8704 7.26728 11.3494 9.39782C8.82847 11.5284 7.00445 14.366 6.11307 17.5441C5.2217 20.7221 5.30396 24.0944 6.3492 27.2252C7.39445 30.356 9.35465 33.1013 11.9765 35.1065C14.5983 37.1116 17.7612 38.2843 21.0565 38.473M6.60286 16.5004H37.4029M6.60286 27.5004H32.0862M21.0827 5.50045C17.9942 10.4497 16.3568 16.1665 16.3568 22.0004C16.3568 27.8344 17.9942 33.5512 21.0827 38.5004M22.9167 5.50045C27.008 12.0554 28.518 19.8967 27.1535 27.5023M27.5 34.8338L31.1667 38.5004L38.5 31.1671" stroke="#2761FC" stroke-width="2.5" stroke-linecap="round" stroke-linejoin="round"/>
</svg>
